<svg width="1042" height="555" viewBox="0 0 1042 555" fill="none" xmlns="http://www.w3.org/2000/svg">
<rect width="1042" height="555" fill="white"/>
<g id="undraw_programmer_imem 1" clip-path="url(#clip0)">
<g id="Background">
<path id="Vector" d="M961.48 438.21C960.32 440.71 959.163 443.177 958.01 445.61C956.21 449.39 954.433 453.097 952.68 456.73C951.9 458.34 951.12 459.92 950.36 461.5C941.76 479.07 933.73 494.61 926.91 507.39C920.722 518.97 911.533 528.672 900.306 535.481C889.08 542.29 876.229 545.954 863.1 546.09L711.45 547.74H709.85L696.85 547.88L685.73 548L651.63 548.37H650.25L632.89 548.56H632.36L525.36 549.72L429.85 550.72L418.74 550.84L349.74 551.59H349.66L304.91 552.07H304.43L162.93 553.6L120.6 554.06C116.996 554.101 113.392 553.921 109.81 553.52V553.52C108.59 553.38 107.37 553.22 106.16 553.03C86.418 549.983 68.3161 540.263 54.87 525.49C36.66 505.46 23.41 482.09 14.51 456.73C13.2233 453.07 12.0233 449.363 10.91 445.61C-19.9 341.46 17.66 207.09 85.26 117.17C88.0933 113.41 90.9733 109.743 93.9 106.17L93.97 106.09C114.76 80.57 138.07 59.25 162.9 44.09C206.9 17.18 255.65 9.60001 303.6 32.19C344.17 51.31 382.05 60.3 418.77 62.74C422.48 62.98 426.19 63.16 429.88 63.27C514.11 65.92 593.05 35.57 685.75 15.98C689.44 15.2 693.14 14.43 696.87 13.7C763 0.540001 836.36 -6.39999 923.6 8.19001C932.664 9.67067 941.607 11.8097 950.36 14.59C954.207 15.83 957.913 17.1633 961.48 18.59C1003.12 35.53 1025.83 66.83 1035.48 106.05C1036.39 109.69 1037.18 113.393 1037.85 117.16C1054.96 211.5 1004.85 345.32 961.48 438.21Z" fill="url(#paint0_linear)"/>
<path id="Vector_2" opacity="0.1" d="M497.02 445.61C496.617 449.35 495.992 453.064 495.15 456.73H588.85V445.61H497.02ZM418.77 508.42L429.88 508.33V480.86C426.07 480.69 422.36 480.52 418.77 480.34V508.42ZM185.85 445.61V456.73H384.35V445.61H185.85ZM1035.53 106.09H961.53V18.6C957.963 17.1533 954.257 15.82 950.41 14.6V106.09H696.87V13.67C693.14 14.4 689.44 15.17 685.75 15.95V106.09H429.88V63.24C426.19 63.13 422.48 62.95 418.77 62.71V106.09H162.9V44.09C138.07 59.25 114.76 80.57 93.97 106.09H93.9V106.17C90.9667 109.77 88.0867 113.437 85.26 117.17H93.9V445.61H10.9C12.0067 449.363 13.2067 453.07 14.5 456.73H93.89V550.35C97.8844 551.572 101.962 552.504 106.09 553.14C107.3 553.33 108.52 553.49 109.74 553.63C113.322 554.031 116.926 554.211 120.53 554.17L162.86 553.71V456.71H418.77V550.92L429.88 550.8V456.73H685.75V548.09L696.87 547.97V456.73H950.36V461.5C951.12 459.92 951.9 458.34 952.68 456.73C954.433 453.097 956.21 449.39 958.01 445.61C959.163 443.183 960.32 440.717 961.48 438.21V117.21H1037.9C1037.23 113.417 1036.44 109.71 1035.53 106.09ZM162.9 445.61V117.17H418.77V445.61H162.9ZM429.9 445.61V117.17H685.75V445.61H429.9ZM950.38 445.61H696.87V117.17H950.36L950.38 445.61Z" fill="black"/>
</g>
<g id="Desk">
<path id="Vector_3" opacity="0.1" d="M863.09 533.65V546.65L711.17 548.05L709.55 548.08L651.81 548.61L650.43 548.63L632.88 548.78H632.36L525.38 549.77L349.77 551.4H349.62L304.97 551.82L304.49 551.83L106.09 553.65V538.65L308.6 537.32H309.08L350.07 537.04H350.26L633.34 535.17H633.63L633.8 535.16H634.27L639.06 535.13H640.52L715.01 534.63L719.41 534.61L720.39 534.6L863.09 533.65Z" fill="black"/>
<path id="Vector_4" opacity="0.2" d="M863.09 533.65V546.65L711.17 548.05L709.55 548.08L651.81 548.61L650.43 548.63L632.88 548.78H632.36L525.38 549.77L349.77 551.4H349.62L304.97 551.82L304.49 551.83L106.09 553.65V538.65L152.74 510.65L246.34 509.87L248.34 509.86L249 509.85L251 509.82L295.94 509.45L297.95 509.44L298.59 509.43L300.59 509.42L315 509.3L315.38 509.29L350.93 508.99H351.22L628.62 506.65L635.41 506.6H636.09L641.27 506.55L678.92 506.24L680.92 506.21L682.77 506.19H683.73L695.44 506.1L697.76 506.07L700.87 506.05L710.62 505.96L726.09 505.83L728.09 505.81L731.57 505.79H732.22L806.93 505.15L863.09 533.65Z" fill="black"/>
<path id="Vector_5" d="M863.09 533.65V546.65L711.17 548.05L709.55 548.08L651.81 548.61L650.43 548.63L632.88 548.78H632.36L525.38 549.77L349.77 551.4H349.62L304.97 551.82L304.49 551.83L106.09 553.65V538.65L152.74 510.65L246.34 509.87L248.34 509.86L249 509.85L251 509.82L295.94 509.45L297.95 509.44L298.59 509.43L300.59 509.42L315 509.3L315.38 509.29L350.93 508.99H351.22L628.62 506.65L635.41 506.6H636.09L641.27 506.55L678.92 506.24L680.92 506.21L682.77 506.19H683.73L695.44 506.1L697.76 506.07L700.87 506.05L710.62 505.96L726.09 505.83L728.09 505.81L731.57 505.79H732.22L806.93 505.15L863.09 533.65Z" fill="#65617D"/>
</g>
<g id="Computers">
<path id="Vector_6" d="M676.72 517.57L728.97 518.57V509.9L676.72 508.9V517.57Z" fill="#3F3D56"/>
<path id="Vector_7" opacity="0.1" d="M678.72 517.57L730.97 518.57V509.9L678.72 508.9V517.57Z" fill="black"/>
<path id="Vector_8" d="M726.09 483.65H678.92V515.15H726.09V483.65Z" fill="#3F3D56"/>
<path id="Vector_9" d="M728.09 483.65H680.92V515.15H728.09V483.65Z" fill="#3F3D56"/>
<path id="Vector_10" opacity="0.1" d="M296.1 483.66V508.15C296.101 509.31 295.772 510.446 295.152 511.427C294.533 512.408 293.648 513.192 292.6 513.69C291.82 514.068 290.967 514.273 290.1 514.29L255.2 515.03C254.268 515.052 253.343 514.857 252.5 514.46C251.434 513.971 250.53 513.186 249.897 512.199C249.265 511.211 248.929 510.063 248.93 508.89V483.66H296.1Z" fill="black"/>
<path id="Vector_11" d="M296.1 483.66V508.15C296.101 509.31 295.772 510.446 295.152 511.427C294.533 512.408 293.648 513.192 292.6 513.69C291.82 514.068 290.967 514.273 290.1 514.29L255.2 515.03C254.268 515.052 253.343 514.857 252.5 514.46C251.434 513.971 250.53 513.186 249.897 512.199C249.265 511.211 248.929 510.063 248.93 508.89V483.66H296.1Z" fill="#3F3D56"/>
<path id="Vector_12" d="M298.1 483.66V508.15C298.101 509.31 297.772 510.446 297.152 511.427C296.533 512.408 295.648 513.192 294.6 513.69C293.82 514.068 292.967 514.273 292.1 514.29L257.2 515.03C256.268 515.052 255.343 514.857 254.5 514.46C253.434 513.971 252.53 513.186 251.897 512.199C251.265 511.211 250.929 510.063 250.93 508.89V483.66H298.1Z" fill="#3F3D56"/>
<path id="Vector_13" opacity="0.1" d="M728.09 483.65H680.92V515.15H728.09V483.65Z" fill="black"/>
<path id="Vector_14" opacity="0.1" d="M298.09 483.65V488.62L250.92 489.88V483.65H298.09Z" fill="black"/>
<path id="Vector_15" opacity="0.1" d="M679.22 506.96V510.15C679.219 511.31 679.548 512.446 680.168 513.427C680.787 514.408 681.672 515.192 682.72 515.69L722.82 516.46C723.886 515.971 724.79 515.186 725.422 514.199C726.055 513.211 726.391 512.063 726.39 510.89V507.89L679.22 506.96Z" fill="black"/>
<path id="Vector_16" d="M381.35 312.36V480.56C381.338 481.587 380.931 482.569 380.215 483.305C379.498 484.04 378.526 484.472 377.5 484.51L185.85 489.61H185.8C184.756 489.597 183.759 489.177 183.021 488.439C182.283 487.701 181.863 486.704 181.85 485.66V312.36C181.863 311.316 182.283 310.319 183.021 309.581C183.759 308.843 184.756 308.423 185.8 308.41H377.4C378.444 308.423 379.441 308.843 380.179 309.581C380.917 310.319 381.337 311.316 381.35 312.36V312.36Z" fill="#65617D"/>
<path id="Vector_17" d="M194.59 319.15H372.09V467.4L194.59 471.4V319.15Z" fill="#6C63FF"/>
<path id="Vector_18" opacity="0.1" d="M185.85 308.41V489.61H185.8C184.756 489.597 183.759 489.177 183.021 488.439C182.283 487.701 181.863 486.704 181.85 485.66V312.36C181.863 311.316 182.283 310.319 183.021 309.581C183.759 308.843 184.756 308.423 185.8 308.41H185.85Z" fill="black"/>
<path id="Vector_19" d="M300.59 515.57L248.34 516.57V507.9L300.59 506.9V515.57Z" fill="#3F3D56"/>
<path id="Vector_20" opacity="0.1" d="M298.59 515.57L246.34 516.57V507.9L298.59 506.9V515.57Z" fill="black"/>
<path id="Vector_21" d="M298.59 515.57L246.34 516.57V507.9L298.59 506.9V515.57Z" fill="#3F3D56"/>
<path id="Vector_22" opacity="0.1" d="M298.1 504.96V508.15C298.101 509.31 297.772 510.446 297.152 511.427C296.533 512.408 295.648 513.192 294.6 513.69L254.5 514.46C253.434 513.971 252.53 513.186 251.897 512.199C251.265 511.211 250.929 510.063 250.93 508.89V505.89L298.1 504.96Z" fill="black"/>
<path id="Vector_23" opacity="0.1" d="M726.09 483.65V490.06L678.92 488.8V483.65H726.09Z" fill="black"/>
<path id="Vector_24" d="M397.09 319.15H574.59V467.4L397.09 471.4V319.15Z" fill="#6C63FF"/>
<path id="Vector_25" d="M788.35 312.36V485.66C788.337 486.712 787.91 487.717 787.161 488.456C786.412 489.196 785.402 489.61 784.35 489.61V489.61L592.66 484.51C591.634 484.472 590.662 484.04 589.945 483.305C589.229 482.569 588.822 481.587 588.81 480.56V312.36C588.823 311.316 589.243 310.319 589.981 309.581C590.719 308.843 591.716 308.423 592.76 308.41H784.36C785.411 308.413 786.418 308.828 787.164 309.567C787.911 310.306 788.337 311.31 788.35 312.36V312.36Z" fill="#65617D"/>
<path id="Vector_26" d="M583.85 312.36V480.56C583.838 481.587 583.431 482.569 582.715 483.305C581.998 484.04 581.026 484.472 580 484.51L388.35 489.61C387.298 489.61 386.288 489.196 385.539 488.456C384.79 487.717 384.363 486.712 384.35 485.66V312.36C384.363 311.316 384.783 310.319 385.521 309.581C386.259 308.843 387.256 308.423 388.3 308.41H579.9C580.944 308.423 581.941 308.843 582.679 309.581C583.417 310.319 583.837 311.316 583.85 312.36V312.36Z" fill="#65617D"/>
<path id="Vector_27" opacity="0.1" d="M788.35 312.36V485.66C788.337 486.712 787.91 487.717 787.161 488.456C786.412 489.196 785.402 489.61 784.35 489.61V489.61V308.41C785.402 308.41 786.412 308.824 787.161 309.564C787.91 310.303 788.337 311.308 788.35 312.36Z" fill="black"/>
<path id="Vector_28" d="M775.59 319.15H598.09V467.4L775.59 471.4V319.15Z" fill="#E3E1FF"/>
<path id="Vector_29" d="M575 319H397V467.007L575 471V319Z" fill="#6C63FF"/>
</g>
<g id="Code2">
<path id="Vector_30" d="M299.513 449H202.487C202.358 449 202.234 448.947 202.143 448.854C202.051 448.76 202 448.633 202 448.5C202 448.367 202.051 448.24 202.143 448.146C202.234 448.053 202.358 448 202.487 448H299.513C299.642 448 299.766 448.053 299.857 448.146C299.949 448.24 300 448.367 300 448.5C300 448.633 299.949 448.76 299.857 448.854C299.766 448.947 299.642 449 299.513 449Z" fill="#F2F2F2"/>
<path id="Vector_31" d="M299.513 438H202.487C202.358 438 202.234 438.053 202.143 438.146C202.051 438.24 202 438.367 202 438.5C202 438.633 202.051 438.76 202.143 438.854C202.234 438.947 202.358 439 202.487 439H299.513C299.642 439 299.766 438.947 299.857 438.854C299.949 438.76 300 438.633 300 438.5C300 438.367 299.949 438.24 299.857 438.146C299.766 438.053 299.642 438 299.513 438Z" fill="#F2F2F2"/>
<path id="Vector_32" d="M297.513 429H200.487C200.358 429 200.234 428.947 200.143 428.854C200.051 428.76 200 428.633 200 428.5C200 428.367 200.051 428.24 200.143 428.146C200.234 428.053 200.358 428 200.487 428H297.513C297.642 428 297.766 428.053 297.857 428.146C297.949 428.24 298 428.367 298 428.5C298 428.633 297.949 428.76 297.857 428.854C297.766 428.947 297.642 429 297.513 429Z" fill="#F2F2F2"/>
<path id="Vector_33" d="M259.702 419H200.298C200.219 419 200.143 418.947 200.087 418.854C200.031 418.76 200 418.633 200 418.5C200 418.367 200.031 418.24 200.087 418.146C200.143 418.053 200.219 418 200.298 418H259.702C259.781 418 259.857 418.053 259.913 418.146C259.969 418.24 260 418.367 260 418.5C260 418.633 259.969 418.76 259.913 418.854C259.857 418.947 259.781 419 259.702 419Z" fill="#F2F2F2"/>
<path id="Vector_34" d="M229.851 408H200.149C200.11 408 200.072 407.947 200.044 407.854C200.016 407.76 200 407.633 200 407.5C200 407.367 200.016 407.24 200.044 407.146C200.072 407.053 200.11 407 200.149 407H229.851C229.89 407 229.928 407.053 229.956 407.146C229.984 407.24 230 407.367 230 407.5C230 407.633 229.984 407.76 229.956 407.854C229.928 407.947 229.89 408 229.851 408Z" fill="#F2F2F2"/>
<path id="Vector_35" d="M273.702 394H214.298C214.219 394 214.143 393.947 214.087 393.854C214.031 393.76 214 393.633 214 393.5C214 393.367 214.031 393.24 214.087 393.146C214.143 393.053 214.219 393 214.298 393H273.702C273.781 393 273.857 393.053 273.913 393.146C273.969 393.24 274 393.367 274 393.5C274 393.633 273.969 393.76 273.913 393.854C273.857 393.947 273.781 394 273.702 394Z" fill="#F2F2F2"/>
<path id="Vector_36" d="M209.984 390.564L205.868 397.137C205.863 397.146 205.813 397.126 205.729 397.083C205.646 397.039 205.536 396.975 205.424 396.905C205.311 396.834 205.206 396.763 205.13 396.707C205.055 396.651 205.015 396.615 205.021 396.606L209.136 390.033C209.142 390.024 209.192 390.044 209.275 390.087C209.358 390.131 209.468 390.195 209.581 390.265C209.693 390.336 209.799 390.407 209.874 390.463C209.95 390.519 209.989 390.555 209.984 390.564Z" fill="#F2F2F2"/>
<path id="Vector_37" d="M204.984 390.564L200.868 397.137C200.863 397.146 200.813 397.126 200.729 397.083C200.646 397.039 200.536 396.975 200.424 396.905C200.311 396.834 200.206 396.763 200.13 396.707C200.055 396.651 200.015 396.615 200.021 396.606L204.136 390.033C204.142 390.024 204.192 390.044 204.275 390.087C204.358 390.131 204.468 390.195 204.581 390.265C204.693 390.336 204.799 390.407 204.874 390.463C204.95 390.519 204.989 390.555 204.984 390.564Z" fill="#F2F2F2"/>
<path id="Vector_38" d="M259.702 381H200.298C200.219 381 200.143 380.947 200.087 380.854C200.031 380.76 200 380.633 200 380.5C200 380.367 200.031 380.24 200.087 380.146C200.143 380.053 200.219 380 200.298 380H259.702C259.781 380 259.857 380.053 259.913 380.146C259.969 380.24 260 380.367 260 380.5C260 380.633 259.969 380.76 259.913 380.854C259.857 380.947 259.781 381 259.702 381Z" fill="#F2F2F2"/>
<path id="Vector_39" d="M259.702 372H200.298C200.219 372 200.143 371.947 200.087 371.854C200.031 371.76 200 371.633 200 371.5C200 371.367 200.031 371.24 200.087 371.146C200.143 371.053 200.219 371 200.298 371H259.702C259.781 371 259.857 371.053 259.913 371.146C259.969 371.24 260 371.367 260 371.5C260 371.633 259.969 371.76 259.913 371.854C259.857 371.947 259.781 372 259.702 372Z" fill="#F2F2F2"/>
<path id="Vector_40" d="M259.702 364H200.298C200.219 364 200.143 363.947 200.087 363.854C200.031 363.76 200 363.633 200 363.5C200 363.367 200.031 363.24 200.087 363.146C200.143 363.053 200.219 363 200.298 363H259.702C259.781 363 259.857 363.053 259.913 363.146C259.969 363.24 260 363.367 260 363.5C260 363.633 259.969 363.76 259.913 363.854C259.857 363.947 259.781 364 259.702 364Z" fill="#F2F2F2"/>
</g>
<g id="Code1">
<path id="Vector_41" d="M300.26 352.59H200.66C200.527 352.59 200.4 352.537 200.306 352.444C200.213 352.35 200.16 352.223 200.16 352.09C200.16 351.957 200.213 351.83 200.306 351.736C200.4 351.643 200.527 351.59 200.66 351.59H300.26C300.393 351.59 300.52 351.643 300.614 351.736C300.707 351.83 300.76 351.957 300.76 352.09C300.76 352.223 300.707 352.35 300.614 352.444C300.52 352.537 300.393 352.59 300.26 352.59Z" fill="#F2F2F2"/>
<path id="Vector_42" d="M300.26 342.59H200.66C200.527 342.59 200.4 342.537 200.306 342.444C200.213 342.35 200.16 342.223 200.16 342.09C200.16 341.957 200.213 341.83 200.306 341.736C200.4 341.643 200.527 341.59 200.66 341.59H300.26C300.393 341.59 300.52 341.643 300.614 341.736C300.707 341.83 300.76 341.957 300.76 342.09C300.76 342.223 300.707 342.35 300.614 342.444C300.52 342.537 300.393 342.59 300.26 342.59Z" fill="#F2F2F2"/>
<path id="Vector_43" d="M300.26 333.59H200.66C200.527 333.59 200.4 333.537 200.306 333.444C200.213 333.35 200.16 333.223 200.16 333.09C200.16 332.957 200.213 332.83 200.306 332.736C200.4 332.643 200.527 332.59 200.66 332.59H300.26C300.393 332.59 300.52 332.643 300.614 332.736C300.707 332.83 300.76 332.957 300.76 333.09C300.76 333.223 300.707 333.35 300.614 333.444C300.52 333.537 300.393 333.59 300.26 333.59Z" fill="#F2F2F2"/>
</g>
<g id="StackOverflow">
<path id="Vector_44" d="M710.1 402H610.5C610.367 402 610.24 401.947 610.146 401.854C610.053 401.76 610 401.633 610 401.5C610 401.367 610.053 401.24 610.146 401.146C610.24 401.053 610.367 401 610.5 401H710.1C710.233 401 710.36 401.053 710.454 401.146C710.547 401.24 710.6 401.367 710.6 401.5C710.6 401.633 710.547 401.76 710.454 401.854C710.36 401.947 710.233 402 710.1 402Z" fill="black"/>
<path id="Vector_45" d="M710.1 392H610.5C610.367 392 610.24 391.947 610.146 391.854C610.053 391.76 610 391.633 610 391.5C610 391.367 610.053 391.24 610.146 391.146C610.24 391.053 610.367 391 610.5 391H710.1C710.233 391 710.36 391.053 710.454 391.146C710.547 391.24 710.6 391.367 710.6 391.5C710.6 391.633 710.547 391.76 710.454 391.854C710.36 391.947 710.233 392 710.1 392Z" fill="black"/>
<path id="Vector_46" d="M710.1 383H610.5C610.367 383 610.24 382.947 610.146 382.854C610.053 382.76 610 382.633 610 382.5C610 382.367 610.053 382.24 610.146 382.146C610.24 382.053 610.367 382 610.5 382H710.1C710.233 382 710.36 382.053 710.454 382.146C710.547 382.24 710.6 382.367 710.6 382.5C710.6 382.633 710.547 382.76 710.454 382.854C710.36 382.947 710.233 383 710.1 383Z" fill="black"/>
<path id="How to center a div:" d="M615.369 369V360.469H614.344V364.137H610.846V360.469H609.826V369H610.846V365.057H614.344V369H615.369ZM616.922 365.771V365.9C616.922 366.357 616.988 366.781 617.121 367.172C617.254 367.562 617.445 367.902 617.695 368.191C617.941 368.48 618.242 368.707 618.598 368.871C618.957 369.035 619.361 369.117 619.811 369.117C620.256 369.117 620.656 369.035 621.012 368.871C621.367 368.707 621.67 368.48 621.92 368.191C622.166 367.902 622.355 367.562 622.488 367.172C622.621 366.781 622.688 366.357 622.688 365.9V365.771C622.688 365.314 622.621 364.891 622.488 364.5C622.355 364.105 622.166 363.764 621.92 363.475C621.67 363.186 621.365 362.959 621.006 362.795C620.65 362.627 620.248 362.543 619.799 362.543C619.354 362.543 618.953 362.627 618.598 362.795C618.242 362.959 617.941 363.186 617.695 363.475C617.445 363.764 617.254 364.105 617.121 364.5C616.988 364.891 616.922 365.314 616.922 365.771ZM618.006 365.9V365.771C618.006 365.463 618.043 365.168 618.117 364.887C618.191 364.602 618.305 364.352 618.457 364.137C618.605 363.922 618.791 363.752 619.014 363.627C619.236 363.498 619.498 363.434 619.799 363.434C620.1 363.434 620.361 363.498 620.584 363.627C620.811 363.752 621 363.922 621.152 364.137C621.301 364.352 621.412 364.602 621.486 364.887C621.564 365.168 621.604 365.463 621.604 365.771V365.9C621.604 366.213 621.566 366.512 621.492 366.797C621.418 367.078 621.307 367.326 621.158 367.541C621.006 367.756 620.816 367.926 620.59 368.051C620.367 368.176 620.107 368.238 619.811 368.238C619.51 368.238 619.246 368.176 619.02 368.051C618.793 367.926 618.605 367.756 618.457 367.541C618.305 367.326 618.191 367.078 618.117 366.797C618.043 366.512 618.006 366.213 618.006 365.9ZM625.043 369H625.898L626.877 365.115L627.035 364.131L627.199 365.115L628.189 369H629.045L630.393 362.66H629.432L628.729 366.703L628.57 367.699L628.4 366.703L627.393 362.66H626.695L625.682 366.703L625.523 367.611L625.395 366.703L624.656 362.66H623.695L625.043 369ZM641.414 361.125H640.324V362.66H638.66V363.498H640.324V366.943C640.324 367.334 640.375 367.668 640.477 367.945C640.582 368.219 640.725 368.441 640.904 368.613C641.084 368.789 641.295 368.918 641.537 369C641.783 369.078 642.047 369.117 642.328 369.117C642.496 369.117 642.664 369.109 642.832 369.094C643.004 369.078 643.166 369.055 643.318 369.023C643.471 368.996 643.611 368.963 643.74 368.924C643.869 368.881 643.979 368.832 644.068 368.777L643.916 368.01C643.85 368.025 643.764 368.045 643.658 368.068C643.557 368.088 643.447 368.107 643.33 368.127C643.209 368.146 643.086 368.164 642.961 368.18C642.836 368.191 642.715 368.197 642.598 368.197C642.438 368.197 642.285 368.178 642.141 368.139C642 368.1 641.875 368.031 641.766 367.934C641.656 367.84 641.57 367.713 641.508 367.553C641.445 367.393 641.414 367.189 641.414 366.943V363.498H643.828V362.66H641.414V361.125ZM645.75 365.771V365.9C645.75 366.357 645.816 366.781 645.949 367.172C646.082 367.562 646.273 367.902 646.523 368.191C646.77 368.48 647.07 368.707 647.426 368.871C647.785 369.035 648.189 369.117 648.639 369.117C649.084 369.117 649.484 369.035 649.84 368.871C650.195 368.707 650.498 368.48 650.748 368.191C650.994 367.902 651.184 367.562 651.316 367.172C651.449 366.781 651.516 366.357 651.516 365.9V365.771C651.516 365.314 651.449 364.891 651.316 364.5C651.184 364.105 650.994 363.764 650.748 363.475C650.498 363.186 650.193 362.959 649.834 362.795C649.479 362.627 649.076 362.543 648.627 362.543C648.182 362.543 647.781 362.627 647.426 362.795C647.07 362.959 646.77 363.186 646.523 363.475C646.273 363.764 646.082 364.105 645.949 364.5C645.816 364.891 645.75 365.314 645.75 365.771ZM646.834 365.9V365.771C646.834 365.463 646.871 365.168 646.945 364.887C647.02 364.602 647.133 364.352 647.285 364.137C647.434 363.922 647.619 363.752 647.842 363.627C648.064 363.498 648.326 363.434 648.627 363.434C648.928 363.434 649.189 363.498 649.412 363.627C649.639 363.752 649.828 363.922 649.98 364.137C650.129 364.352 650.24 364.602 650.314 364.887C650.393 365.168 650.432 365.463 650.432 365.771V365.9C650.432 366.213 650.395 366.512 650.32 366.797C650.246 367.078 650.135 367.326 649.986 367.541C649.834 367.756 649.645 367.926 649.418 368.051C649.195 368.176 648.936 368.238 648.639 368.238C648.338 368.238 648.074 368.176 647.848 368.051C647.621 367.926 647.434 367.756 647.285 367.541C647.133 367.326 647.02 367.078 646.945 366.797C646.871 366.512 646.834 366.213 646.834 365.9ZM663.17 368.238C662.83 368.238 662.545 368.172 662.314 368.039C662.088 367.902 661.906 367.725 661.77 367.506C661.629 367.291 661.527 367.049 661.465 366.779C661.406 366.506 661.377 366.23 661.377 365.953V365.707C661.377 365.434 661.406 365.162 661.465 364.893C661.527 364.623 661.629 364.379 661.77 364.16C661.91 363.945 662.094 363.771 662.32 363.639C662.551 363.502 662.834 363.434 663.17 363.434C663.389 363.434 663.592 363.471 663.779 363.545C663.971 363.619 664.135 363.721 664.271 363.85C664.408 363.979 664.516 364.129 664.594 364.301C664.676 364.469 664.719 364.648 664.723 364.84H665.748C665.748 364.52 665.684 364.219 665.555 363.938C665.426 363.656 665.248 363.412 665.021 363.205C664.791 363.002 664.518 362.842 664.201 362.725C663.889 362.604 663.545 362.543 663.17 362.543C662.689 362.543 662.27 362.629 661.91 362.801C661.551 362.973 661.252 363.203 661.014 363.492C660.771 363.785 660.59 364.123 660.469 364.506C660.348 364.889 660.287 365.289 660.287 365.707V365.953C660.287 366.375 660.348 366.777 660.469 367.16C660.59 367.539 660.771 367.873 661.014 368.162C661.252 368.455 661.551 368.688 661.91 368.859C662.27 369.031 662.689 369.117 663.17 369.117C663.506 369.117 663.828 369.061 664.137 368.947C664.445 368.83 664.719 368.674 664.957 368.479C665.195 368.287 665.385 368.064 665.525 367.811C665.67 367.553 665.744 367.283 665.748 367.002H664.723C664.719 367.178 664.672 367.342 664.582 367.494C664.496 367.643 664.381 367.771 664.236 367.881C664.092 367.994 663.926 368.082 663.738 368.145C663.555 368.207 663.365 368.238 663.17 368.238ZM670.477 369.117C671.094 369.117 671.611 368.994 672.029 368.748C672.451 368.498 672.768 368.213 672.979 367.893L672.316 367.377C672.117 367.635 671.867 367.842 671.566 367.998C671.266 368.154 670.922 368.232 670.535 368.232C670.242 368.232 669.975 368.178 669.732 368.068C669.49 367.959 669.283 367.809 669.111 367.617C668.943 367.438 668.811 367.23 668.713 366.996C668.619 366.762 668.559 366.49 668.531 366.182V366.141H673.061V365.654C673.061 365.213 673.004 364.803 672.891 364.424C672.781 364.045 672.613 363.715 672.387 363.434C672.16 363.156 671.875 362.939 671.531 362.783C671.191 362.623 670.793 362.543 670.336 362.543C669.973 362.543 669.617 362.617 669.27 362.766C668.926 362.914 668.619 363.127 668.35 363.404C668.076 363.686 667.857 364.029 667.693 364.436C667.529 364.838 667.447 365.295 667.447 365.807V366.053C667.447 366.494 667.521 366.902 667.67 367.277C667.818 367.652 668.025 367.977 668.291 368.25C668.557 368.523 668.875 368.736 669.246 368.889C669.621 369.041 670.031 369.117 670.477 369.117ZM670.336 363.434C670.613 363.434 670.852 363.484 671.051 363.586C671.254 363.688 671.422 363.82 671.555 363.984C671.688 364.148 671.791 364.344 671.865 364.57C671.939 364.793 671.977 365.002 671.977 365.197V365.25H668.566C668.609 364.957 668.684 364.699 668.789 364.477C668.898 364.25 669.031 364.059 669.188 363.902C669.344 363.75 669.52 363.635 669.715 363.557C669.91 363.475 670.117 363.434 670.336 363.434ZM674.883 369H675.967V364.453C676.041 364.316 676.127 364.191 676.225 364.078C676.326 363.965 676.436 363.865 676.553 363.779C676.697 363.682 676.855 363.605 677.027 363.551C677.199 363.492 677.385 363.463 677.584 363.463C677.814 363.463 678.018 363.49 678.193 363.545C678.373 363.6 678.525 363.688 678.65 363.809C678.771 363.93 678.863 364.088 678.926 364.283C678.988 364.479 679.02 364.717 679.02 364.998V369H680.104V364.975C680.104 364.553 680.051 364.189 679.945 363.885C679.844 363.576 679.697 363.322 679.506 363.123C679.314 362.924 679.082 362.777 678.809 362.684C678.539 362.59 678.238 362.543 677.906 362.543C677.66 362.547 677.426 362.584 677.203 362.654C676.984 362.721 676.781 362.816 676.594 362.941C676.469 363.023 676.35 363.121 676.236 363.234C676.127 363.344 676.025 363.465 675.932 363.598L675.855 362.66H674.883V369ZM684.656 361.125H683.566V362.66H681.902V363.498H683.566V366.943C683.566 367.334 683.617 367.668 683.719 367.945C683.824 368.219 683.967 368.441 684.146 368.613C684.326 368.789 684.537 368.918 684.779 369C685.025 369.078 685.289 369.117 685.57 369.117C685.738 369.117 685.906 369.109 686.074 369.094C686.246 369.078 686.408 369.055 686.561 369.023C686.713 368.996 686.854 368.963 686.982 368.924C687.111 368.881 687.221 368.832 687.311 368.777L687.158 368.01C687.092 368.025 687.006 368.045 686.9 368.068C686.799 368.088 686.689 368.107 686.572 368.127C686.451 368.146 686.328 368.164 686.203 368.18C686.078 368.191 685.957 368.197 685.84 368.197C685.68 368.197 685.527 368.178 685.383 368.139C685.242 368.1 685.117 368.031 685.008 367.934C684.898 367.84 684.812 367.713 684.75 367.553C684.688 367.393 684.656 367.189 684.656 366.943V363.498H687.07V362.66H684.656V361.125ZM692.098 369.117C692.715 369.117 693.232 368.994 693.65 368.748C694.072 368.498 694.389 368.213 694.6 367.893L693.938 367.377C693.738 367.635 693.488 367.842 693.188 367.998C692.887 368.154 692.543 368.232 692.156 368.232C691.863 368.232 691.596 368.178 691.354 368.068C691.111 367.959 690.904 367.809 690.732 367.617C690.564 367.438 690.432 367.23 690.334 366.996C690.24 366.762 690.18 366.49 690.152 366.182V366.141H694.682V365.654C694.682 365.213 694.625 364.803 694.512 364.424C694.402 364.045 694.234 363.715 694.008 363.434C693.781 363.156 693.496 362.939 693.152 362.783C692.812 362.623 692.414 362.543 691.957 362.543C691.594 362.543 691.238 362.617 690.891 362.766C690.547 362.914 690.24 363.127 689.971 363.404C689.697 363.686 689.479 364.029 689.314 364.436C689.15 364.838 689.068 365.295 689.068 365.807V366.053C689.068 366.494 689.143 366.902 689.291 367.277C689.439 367.652 689.646 367.977 689.912 368.25C690.178 368.523 690.496 368.736 690.867 368.889C691.242 369.041 691.652 369.117 692.098 369.117ZM691.957 363.434C692.234 363.434 692.473 363.484 692.672 363.586C692.875 363.688 693.043 363.82 693.176 363.984C693.309 364.148 693.412 364.344 693.486 364.57C693.561 364.793 693.598 365.002 693.598 365.197V365.25H690.188C690.23 364.957 690.305 364.699 690.41 364.477C690.52 364.25 690.652 364.059 690.809 363.902C690.965 363.75 691.141 363.635 691.336 363.557C691.531 363.475 691.738 363.434 691.957 363.434ZM700.658 362.543C700.197 362.543 699.785 362.645 699.422 362.848C699.062 363.047 698.754 363.32 698.496 363.668L698.49 363.51L698.443 362.66H697.412V369H698.502V364.934C698.572 364.738 698.66 364.562 698.766 364.406C698.875 364.246 699.002 364.111 699.146 364.002C699.307 363.877 699.494 363.783 699.709 363.721C699.924 363.654 700.164 363.621 700.43 363.621C700.637 363.621 700.834 363.633 701.021 363.656C701.213 363.676 701.414 363.709 701.625 363.756L701.771 362.695C701.662 362.648 701.498 362.611 701.279 362.584C701.064 362.557 700.857 362.543 700.658 362.543ZM715.084 369H716.215V368.906C716.145 368.73 716.09 368.525 716.051 368.291C716.012 368.053 715.992 367.828 715.992 367.617V364.67C715.992 364.314 715.928 364.004 715.799 363.738C715.67 363.473 715.494 363.25 715.271 363.07C715.045 362.895 714.777 362.764 714.469 362.678C714.16 362.588 713.826 362.543 713.467 362.543C713.072 362.543 712.719 362.598 712.406 362.707C712.098 362.816 711.836 362.959 711.621 363.135C711.402 363.314 711.234 363.516 711.117 363.738C711.004 363.961 710.945 364.188 710.941 364.418H712.031C712.031 364.285 712.062 364.158 712.125 364.037C712.191 363.912 712.283 363.805 712.4 363.715C712.518 363.625 712.66 363.553 712.828 363.498C713 363.443 713.193 363.416 713.408 363.416C713.639 363.416 713.846 363.445 714.029 363.504C714.217 363.562 714.375 363.645 714.504 363.75C714.633 363.859 714.732 363.99 714.803 364.143C714.873 364.295 714.908 364.467 714.908 364.658V365.156H713.725C713.283 365.156 712.883 365.199 712.523 365.285C712.168 365.371 711.863 365.5 711.609 365.672C711.355 365.848 711.158 366.066 711.018 366.328C710.881 366.59 710.812 366.895 710.812 367.242C710.812 367.508 710.863 367.756 710.965 367.986C711.07 368.213 711.219 368.408 711.41 368.572C711.598 368.74 711.826 368.873 712.096 368.971C712.369 369.068 712.674 369.117 713.01 369.117C713.217 369.117 713.412 369.096 713.596 369.053C713.779 369.01 713.953 368.951 714.117 368.877C714.277 368.803 714.424 368.717 714.557 368.619C714.693 368.521 714.816 368.418 714.926 368.309C714.938 368.441 714.955 368.57 714.979 368.695C715.006 368.816 715.041 368.918 715.084 369ZM713.168 368.174C712.957 368.174 712.771 368.146 712.611 368.092C712.451 368.037 712.318 367.961 712.213 367.863C712.107 367.77 712.027 367.656 711.973 367.523C711.922 367.391 711.896 367.246 711.896 367.09C711.896 366.926 711.926 366.779 711.984 366.65C712.047 366.521 712.137 366.41 712.254 366.316C712.418 366.184 712.639 366.086 712.916 366.023C713.197 365.957 713.525 365.924 713.9 365.924H714.908V367.207C714.846 367.332 714.76 367.453 714.65 367.57C714.541 367.684 714.412 367.785 714.264 367.875C714.111 367.965 713.943 368.037 713.76 368.092C713.576 368.146 713.379 368.174 713.168 368.174ZM725.127 365.777V365.9C725.127 366.354 725.188 366.777 725.309 367.172C725.43 367.562 725.6 367.902 725.818 368.191C726.037 368.48 726.301 368.707 726.609 368.871C726.922 369.035 727.27 369.117 727.652 369.117C728.043 369.117 728.385 369.051 728.678 368.918C728.971 368.785 729.223 368.59 729.434 368.332L729.48 369H730.477V360H729.393V363.287C729.186 363.045 728.939 362.861 728.654 362.736C728.373 362.607 728.043 362.543 727.664 362.543C727.277 362.543 726.928 362.623 726.615 362.783C726.303 362.943 726.037 363.166 725.818 363.451C725.596 363.736 725.424 364.078 725.303 364.477C725.186 364.871 725.127 365.305 725.127 365.777ZM726.211 365.9V365.777C726.211 365.469 726.244 365.176 726.311 364.898C726.377 364.617 726.48 364.369 726.621 364.154C726.758 363.943 726.934 363.775 727.148 363.65C727.367 363.525 727.629 363.463 727.934 363.463C728.289 363.463 728.586 363.547 728.824 363.715C729.062 363.879 729.252 364.09 729.393 364.348V367.289C729.252 367.566 729.062 367.787 728.824 367.951C728.586 368.115 728.285 368.197 727.922 368.197C727.621 368.197 727.363 368.137 727.148 368.016C726.934 367.891 726.758 367.723 726.621 367.512C726.48 367.301 726.377 367.057 726.311 366.779C726.244 366.502 726.211 366.209 726.211 365.9ZM732.709 362.66V363.604H734.865V368.062H732.709V369H738.018V368.062H735.949V362.66H732.709ZM734.725 360.996C734.725 361.172 734.777 361.318 734.883 361.436C734.992 361.553 735.156 361.611 735.375 361.611C735.59 361.611 735.752 361.553 735.861 361.436C735.971 361.318 736.025 361.172 736.025 360.996C736.025 360.898 736.01 360.809 735.979 360.727C735.947 360.645 735.9 360.576 735.838 360.521C735.787 360.471 735.723 360.432 735.645 360.404C735.566 360.373 735.477 360.357 735.375 360.357C735.273 360.357 735.182 360.373 735.1 360.404C735.021 360.432 734.957 360.471 734.906 360.521C734.844 360.58 734.797 360.65 734.766 360.732C734.738 360.814 734.725 360.902 734.725 360.996ZM741.908 369H742.734L745.318 362.66H744.211L742.436 367.441L742.33 367.834L742.23 367.441L740.414 362.66H739.301L741.908 369ZM749.133 368.297C749.133 368.523 749.203 368.717 749.344 368.877C749.488 369.033 749.701 369.111 749.982 369.111C750.26 369.111 750.473 369.033 750.621 368.877C750.77 368.721 750.844 368.527 750.844 368.297C750.844 368.062 750.77 367.865 750.621 367.705C750.477 367.541 750.264 367.459 749.982 367.459C749.697 367.459 749.484 367.541 749.344 367.705C749.203 367.869 749.133 368.066 749.133 368.297ZM749.133 363.164C749.133 363.391 749.203 363.584 749.344 363.744C749.488 363.9 749.701 363.979 749.982 363.979C750.26 363.979 750.473 363.9 750.621 363.744C750.77 363.588 750.844 363.395 750.844 363.164C750.844 362.93 750.77 362.732 750.621 362.572C750.477 362.408 750.264 362.326 749.982 362.326C749.697 362.326 749.484 362.408 749.344 362.572C749.203 362.736 749.133 362.934 749.133 363.164Z" fill="black"/>
<path id="stackoverflow" d="M614.232 345.318C614.232 345.42 614.213 345.516 614.174 345.605C614.135 345.695 614.078 345.777 614.004 345.852C613.883 345.973 613.715 346.068 613.5 346.139C613.285 346.205 613.033 346.238 612.744 346.238C612.561 346.238 612.375 346.219 612.188 346.18C612 346.141 611.83 346.074 611.678 345.98C611.521 345.887 611.391 345.764 611.285 345.611C611.184 345.459 611.125 345.271 611.109 345.049H610.025C610.025 345.318 610.086 345.578 610.207 345.828C610.332 346.078 610.512 346.297 610.746 346.484C610.977 346.676 611.26 346.83 611.596 346.947C611.932 347.061 612.314 347.117 612.744 347.117C613.119 347.117 613.465 347.072 613.781 346.982C614.098 346.893 614.369 346.766 614.596 346.602C614.822 346.438 614.998 346.24 615.123 346.01C615.252 345.779 615.316 345.523 615.316 345.242C615.316 344.98 615.26 344.75 615.146 344.551C615.037 344.352 614.877 344.176 614.666 344.023C614.455 343.875 614.195 343.748 613.887 343.643C613.578 343.533 613.229 343.438 612.838 343.355C612.541 343.297 612.295 343.236 612.1 343.174C611.908 343.111 611.756 343.041 611.643 342.963C611.525 342.885 611.443 342.797 611.396 342.699C611.35 342.602 611.326 342.49 611.326 342.365C611.326 342.244 611.355 342.127 611.414 342.014C611.473 341.9 611.561 341.801 611.678 341.715C611.791 341.629 611.934 341.561 612.105 341.51C612.281 341.459 612.484 341.434 612.715 341.434C612.938 341.434 613.137 341.465 613.312 341.527C613.492 341.59 613.645 341.672 613.77 341.773C613.895 341.875 613.992 341.992 614.062 342.125C614.133 342.254 614.168 342.387 614.168 342.523H615.252C615.252 342.246 615.191 341.988 615.07 341.75C614.953 341.508 614.785 341.297 614.566 341.117C614.348 340.938 614.082 340.797 613.77 340.695C613.457 340.594 613.105 340.543 612.715 340.543C612.352 340.543 612.018 340.592 611.713 340.689C611.412 340.787 611.152 340.92 610.934 341.088C610.715 341.256 610.545 341.453 610.424 341.68C610.303 341.902 610.242 342.143 610.242 342.4C610.242 342.662 610.301 342.893 610.418 343.092C610.535 343.287 610.701 343.457 610.916 343.602C611.127 343.75 611.381 343.877 611.678 343.982C611.979 344.088 612.311 344.178 612.674 344.252C612.971 344.311 613.219 344.377 613.418 344.451C613.617 344.521 613.777 344.6 613.898 344.686C614.02 344.771 614.105 344.867 614.156 344.973C614.207 345.074 614.232 345.189 614.232 345.318ZM619.793 339.125H618.703V340.66H617.039V341.498H618.703V344.943C618.703 345.334 618.754 345.668 618.855 345.945C618.961 346.219 619.104 346.441 619.283 346.613C619.463 346.789 619.674 346.918 619.916 347C620.162 347.078 620.426 347.117 620.707 347.117C620.875 347.117 621.043 347.109 621.211 347.094C621.383 347.078 621.545 347.055 621.697 347.023C621.85 346.996 621.99 346.963 622.119 346.924C622.248 346.881 622.357 346.832 622.447 346.777L622.295 346.01C622.229 346.025 622.143 346.045 622.037 346.068C621.936 346.088 621.826 346.107 621.709 346.127C621.588 346.146 621.465 346.164 621.34 346.18C621.215 346.191 621.094 346.197 620.977 346.197C620.816 346.197 620.664 346.178 620.52 346.139C620.379 346.1 620.254 346.031 620.145 345.934C620.035 345.84 619.949 345.713 619.887 345.553C619.824 345.393 619.793 345.189 619.793 344.943V341.498H622.207V340.66H619.793V339.125ZM628.6 347H629.73V346.906C629.66 346.73 629.605 346.525 629.566 346.291C629.527 346.053 629.508 345.828 629.508 345.617V342.67C629.508 342.314 629.443 342.004 629.314 341.738C629.186 341.473 629.01 341.25 628.787 341.07C628.561 340.895 628.293 340.764 627.984 340.678C627.676 340.588 627.342 340.543 626.982 340.543C626.588 340.543 626.234 340.598 625.922 340.707C625.613 340.816 625.352 340.959 625.137 341.135C624.918 341.314 624.75 341.516 624.633 341.738C624.52 341.961 624.461 342.188 624.457 342.418H625.547C625.547 342.285 625.578 342.158 625.641 342.037C625.707 341.912 625.799 341.805 625.916 341.715C626.033 341.625 626.176 341.553 626.344 341.498C626.516 341.443 626.709 341.416 626.924 341.416C627.154 341.416 627.361 341.445 627.545 341.504C627.732 341.562 627.891 341.645 628.02 341.75C628.148 341.859 628.248 341.99 628.318 342.143C628.389 342.295 628.424 342.467 628.424 342.658V343.156H627.24C626.799 343.156 626.398 343.199 626.039 343.285C625.684 343.371 625.379 343.5 625.125 343.672C624.871 343.848 624.674 344.066 624.533 344.328C624.396 344.59 624.328 344.895 624.328 345.242C624.328 345.508 624.379 345.756 624.48 345.986C624.586 346.213 624.734 346.408 624.926 346.572C625.113 346.74 625.342 346.873 625.611 346.971C625.885 347.068 626.189 347.117 626.525 347.117C626.732 347.117 626.928 347.096 627.111 347.053C627.295 347.01 627.469 346.951 627.633 346.877C627.793 346.803 627.939 346.717 628.072 346.619C628.209 346.521 628.332 346.418 628.441 346.309C628.453 346.441 628.471 346.57 628.494 346.695C628.521 346.816 628.557 346.918 628.6 347ZM626.684 346.174C626.473 346.174 626.287 346.146 626.127 346.092C625.967 346.037 625.834 345.961 625.729 345.863C625.623 345.77 625.543 345.656 625.488 345.523C625.438 345.391 625.412 345.246 625.412 345.09C625.412 344.926 625.441 344.779 625.5 344.65C625.562 344.521 625.652 344.41 625.77 344.316C625.934 344.184 626.154 344.086 626.432 344.023C626.713 343.957 627.041 343.924 627.416 343.924H628.424V345.207C628.361 345.332 628.275 345.453 628.166 345.57C628.057 345.684 627.928 345.785 627.779 345.875C627.627 345.965 627.459 346.037 627.275 346.092C627.092 346.146 626.895 346.174 626.684 346.174ZM634.342 346.238C634.002 346.238 633.717 346.172 633.486 346.039C633.26 345.902 633.078 345.725 632.941 345.506C632.801 345.291 632.699 345.049 632.637 344.779C632.578 344.506 632.549 344.23 632.549 343.953V343.707C632.549 343.434 632.578 343.162 632.637 342.893C632.699 342.623 632.801 342.379 632.941 342.16C633.082 341.945 633.266 341.771 633.492 341.639C633.723 341.502 634.006 341.434 634.342 341.434C634.561 341.434 634.764 341.471 634.951 341.545C635.143 341.619 635.307 341.721 635.443 341.85C635.58 341.979 635.688 342.129 635.766 342.301C635.848 342.469 635.891 342.648 635.895 342.84H636.92C636.92 342.52 636.855 342.219 636.727 341.938C636.598 341.656 636.42 341.412 636.193 341.205C635.963 341.002 635.689 340.842 635.373 340.725C635.061 340.604 634.717 340.543 634.342 340.543C633.861 340.543 633.441 340.629 633.082 340.801C632.723 340.973 632.424 341.203 632.186 341.492C631.943 341.785 631.762 342.123 631.641 342.506C631.52 342.889 631.459 343.289 631.459 343.707V343.953C631.459 344.375 631.52 344.777 631.641 345.16C631.762 345.539 631.943 345.873 632.186 346.162C632.424 346.455 632.723 346.688 633.082 346.859C633.441 347.031 633.861 347.117 634.342 347.117C634.678 347.117 635 347.061 635.309 346.947C635.617 346.83 635.891 346.674 636.129 346.479C636.367 346.287 636.557 346.064 636.697 345.811C636.842 345.553 636.916 345.283 636.92 345.002H635.895C635.891 345.178 635.844 345.342 635.754 345.494C635.668 345.643 635.553 345.771 635.408 345.881C635.264 345.994 635.098 346.082 634.91 346.145C634.727 346.207 634.537 346.238 634.342 346.238ZM640.746 344.041L643.072 347H644.449L641.49 343.303L644.057 340.66H642.738L640.658 342.746L639.949 343.508V338H638.859V347H639.949V344.809L640.746 344.041ZM645.639 343.771V343.895C645.639 344.359 645.705 344.789 645.838 345.184C645.971 345.574 646.166 345.914 646.424 346.203C646.678 346.492 646.99 346.719 647.361 346.883C647.736 347.043 648.162 347.123 648.639 347.123C649.111 347.123 649.533 347.043 649.904 346.883C650.275 346.719 650.588 346.492 650.842 346.203C651.096 345.914 651.289 345.574 651.422 345.184C651.555 344.789 651.621 344.359 651.621 343.895V343.771C651.621 343.311 651.555 342.885 651.422 342.494C651.289 342.1 651.096 341.758 650.842 341.469C650.584 341.18 650.27 340.953 649.898 340.789C649.527 340.625 649.104 340.543 648.627 340.543C648.15 340.543 647.727 340.625 647.355 340.789C646.988 340.953 646.678 341.18 646.424 341.469C646.166 341.758 645.971 342.1 645.838 342.494C645.705 342.885 645.639 343.311 645.639 343.771ZM647.268 343.895V343.771C647.268 343.514 647.293 343.27 647.344 343.039C647.395 342.809 647.475 342.605 647.584 342.43C647.693 342.254 647.834 342.115 648.006 342.014C648.178 341.912 648.385 341.861 648.627 341.861C648.873 341.861 649.082 341.912 649.254 342.014C649.426 342.115 649.566 342.254 649.676 342.43C649.781 342.605 649.859 342.809 649.91 343.039C649.961 343.27 649.986 343.514 649.986 343.771V343.895C649.986 344.16 649.961 344.41 649.91 344.645C649.859 344.875 649.781 345.076 649.676 345.248C649.566 345.424 649.426 345.562 649.254 345.664C649.082 345.766 648.877 345.816 648.639 345.816C648.393 345.816 648.182 345.766 648.006 345.664C647.834 345.562 647.693 345.424 647.584 345.248C647.475 345.076 647.395 344.875 647.344 344.645C647.293 344.41 647.268 344.16 647.268 343.895ZM655.084 347H656.613L659.021 340.66H657.322L655.934 345.131L655.846 345.576L655.758 345.131L654.363 340.66H652.664L655.084 347ZM663.352 347.117C663.965 347.117 664.496 346.998 664.945 346.76C665.395 346.521 665.723 346.256 665.93 345.963L665.115 345.084C664.928 345.326 664.684 345.508 664.383 345.629C664.082 345.75 663.771 345.811 663.451 345.811C663.225 345.811 663.016 345.775 662.824 345.705C662.633 345.635 662.463 345.535 662.314 345.406C662.17 345.281 662.055 345.143 661.969 344.99C661.883 344.834 661.812 344.629 661.758 344.375V344.357H666.059V343.666C666.059 343.201 665.994 342.777 665.865 342.395C665.736 342.008 665.549 341.678 665.303 341.404C665.053 341.131 664.748 340.92 664.389 340.771C664.033 340.619 663.627 340.543 663.17 340.543C662.729 340.543 662.32 340.623 661.945 340.783C661.57 340.943 661.246 341.168 660.973 341.457C660.699 341.746 660.486 342.092 660.334 342.494C660.182 342.893 660.105 343.334 660.105 343.818V344.053C660.105 344.479 660.182 344.879 660.334 345.254C660.49 345.625 660.711 345.947 660.996 346.221C661.281 346.498 661.623 346.717 662.021 346.877C662.42 347.037 662.863 347.117 663.352 347.117ZM663.158 341.861C663.365 341.861 663.547 341.895 663.703 341.961C663.863 342.023 663.998 342.109 664.107 342.219C664.217 342.332 664.303 342.465 664.365 342.617C664.428 342.77 664.459 342.932 664.459 343.104V343.232H661.787C661.826 343.025 661.885 342.838 661.963 342.67C662.041 342.502 662.139 342.357 662.256 342.236C662.369 342.115 662.502 342.023 662.654 341.961C662.807 341.895 662.975 341.861 663.158 341.861ZM672.035 340.543C671.609 340.543 671.217 340.646 670.857 340.854C670.498 341.057 670.189 341.338 669.932 341.697L669.92 341.557L669.855 340.66H668.338V347H669.967V343.191C670.041 343.012 670.135 342.855 670.248 342.723C670.361 342.59 670.498 342.48 670.658 342.395C670.791 342.32 670.941 342.266 671.109 342.23C671.281 342.191 671.473 342.172 671.684 342.172C671.887 342.172 672.1 342.186 672.322 342.213C672.549 342.236 672.77 342.273 672.984 342.324L673.225 340.701C673.096 340.662 672.926 340.627 672.715 340.596C672.508 340.561 672.281 340.543 672.035 340.543ZM676.266 347H677.9V341.861H680.186V340.66H677.9V340.314C677.9 340.127 677.924 339.959 677.971 339.811C678.021 339.662 678.098 339.537 678.199 339.436C678.312 339.314 678.465 339.223 678.656 339.16C678.848 339.098 679.08 339.066 679.354 339.066C679.607 339.066 679.828 339.078 680.016 339.102C680.203 339.125 680.371 339.152 680.52 339.184L680.625 337.906C680.492 337.883 680.363 337.861 680.238 337.842C680.117 337.822 679.996 337.805 679.875 337.789C679.754 337.773 679.629 337.762 679.5 337.754C679.375 337.742 679.244 337.736 679.107 337.736C678.674 337.736 678.281 337.793 677.93 337.906C677.578 338.016 677.279 338.18 677.033 338.398C676.787 338.617 676.598 338.887 676.465 339.207C676.332 339.527 676.266 339.896 676.266 340.314V340.66H674.602V341.861H676.266V347ZM682.236 338V339.33H684.135V345.676H682.236V347H687.598V345.676H685.781V338H682.236ZM688.881 343.771V343.895C688.881 344.359 688.947 344.789 689.08 345.184C689.213 345.574 689.408 345.914 689.666 346.203C689.92 346.492 690.232 346.719 690.604 346.883C690.979 347.043 691.404 347.123 691.881 347.123C692.354 347.123 692.775 347.043 693.146 346.883C693.518 346.719 693.83 346.492 694.084 346.203C694.338 345.914 694.531 345.574 694.664 345.184C694.797 344.789 694.863 344.359 694.863 343.895V343.771C694.863 343.311 694.797 342.885 694.664 342.494C694.531 342.1 694.338 341.758 694.084 341.469C693.826 341.18 693.512 340.953 693.141 340.789C692.77 340.625 692.346 340.543 691.869 340.543C691.393 340.543 690.969 340.625 690.598 340.789C690.23 340.953 689.92 341.18 689.666 341.469C689.408 341.758 689.213 342.1 689.08 342.494C688.947 342.885 688.881 343.311 688.881 343.771ZM690.51 343.895V343.771C690.51 343.514 690.535 343.27 690.586 343.039C690.637 342.809 690.717 342.605 690.826 342.43C690.936 342.254 691.076 342.115 691.248 342.014C691.42 341.912 691.627 341.861 691.869 341.861C692.115 341.861 692.324 341.912 692.496 342.014C692.668 342.115 692.809 342.254 692.918 342.43C693.023 342.605 693.102 342.809 693.152 343.039C693.203 343.27 693.229 343.514 693.229 343.771V343.895C693.229 344.16 693.203 344.41 693.152 344.645C693.102 344.875 693.023 345.076 692.918 345.248C692.809 345.424 692.668 345.562 692.496 345.664C692.324 345.766 692.119 345.816 691.881 345.816C691.635 345.816 691.424 345.766 691.248 345.664C691.076 345.562 690.936 345.424 690.826 345.248C690.717 345.076 690.637 344.875 690.586 344.645C690.535 344.41 690.51 344.16 690.51 343.895ZM696.779 347H698.209L698.883 343.613L699.012 342.969L699.146 343.613L699.844 347H701.273L702.41 340.66H700.916L700.447 344.398L700.365 345.014L700.254 344.41L699.568 340.66H698.479L697.793 344.428L697.682 345.031L697.605 344.428L697.131 340.66H695.643L696.779 347Z" fill="black"/>
</g>
<g id="Person">
<path id="Vector_47" d="M439.88 377.16C439.88 377.16 539.38 389.16 529.88 377.16C526.44 372.82 525.49 359.96 525.68 345.31C525.74 340.86 525.9 336.25 526.13 331.66C527.23 309.66 529.88 288.16 529.88 288.16C529.88 288.16 442.88 247.16 452.88 279.66C456.88 292.79 455.57 311.23 452.53 328.54C451.64 333.59 450.61 338.54 449.53 343.24C446.894 354.704 443.673 366.025 439.88 377.16V377.16Z" fill="#FBBEBE"/>
<path id="Vector_48" d="M472.35 373.09C460.84 370.96 448.65 367.09 437.82 371.55C434.97 372.72 432.35 374.43 429.43 375.41C426.51 376.39 423.31 376.63 420.27 377.32C409.59 379.74 400.93 387.87 395.37 397.32C389.81 406.77 386.93 417.46 384.11 428.04L377.21 453.87C371.21 476.32 365.21 498.96 363.82 522.17C447.353 526.951 531.078 527.429 614.66 523.6C609.22 513.26 603.66 502.29 604.12 490.6C604.58 478.91 611.31 467.38 608.88 455.86C607.33 448.52 602.31 442.47 599.24 435.64C590.49 416.12 597.3 389.85 581.92 374.99C575 368.31 564.92 365.78 555.29 366.1C543.01 366.51 530.44 370.34 518.29 372.21C502.73 374.57 488.03 375.97 472.35 373.09Z" fill="#FF6584"/>
<path id="Vector_49" d="M491.22 349.48C462.871 349.48 439.89 326.499 439.89 298.15C439.89 269.801 462.871 246.82 491.22 246.82C519.569 246.82 542.55 269.801 542.55 298.15C542.55 326.499 519.569 349.48 491.22 349.48Z" fill="#FBBEBE"/>
</g>
<g id="Chair">
<path id="Vector_50" opacity="0.1" d="M637.33 491.27L636.1 506.6L634.27 529.45L633.81 535.17L632.81 547.98L632.75 548.62V548.79L632.6 550.27L632.71 548.79H632.42L525.42 549.79L349.77 551.69V551.41L350.26 537.05L351.26 508.99L351.9 490.34C351.931 489.279 352.228 488.243 352.762 487.326C353.297 486.409 354.052 485.64 354.96 485.09C356.092 484.396 357.416 484.081 358.74 484.19C360.84 484.36 363.42 484.56 366.43 484.78C371.32 485.14 377.35 485.56 384.37 486C397.37 486.82 413.68 487.7 432.37 488.42C484.37 490.42 554.57 491.09 621.25 485.25C624.25 484.99 627.35 484.7 630.38 484.41C631.579 484.29 632.788 484.52 633.86 485.07C634.164 485.221 634.452 485.402 634.72 485.61C635.591 486.241 636.28 487.089 636.72 488.07C636.822 488.265 636.906 488.469 636.97 488.68C637.27 489.509 637.393 490.391 637.33 491.27V491.27Z" fill="black"/>
<path id="Vector_51" d="M349.74 552.53V551.69L525.36 549.78L632.36 548.78H632.66V548.61L633.66 535.17L634.09 529.17L635.73 506.56L637.02 488.66V488.22C637.08 487.395 637.043 486.566 636.91 485.75C636.916 485.717 636.916 485.683 636.91 485.65C636.635 483.962 635.948 482.369 634.91 481.01C633.809 479.598 632.366 478.49 630.718 477.79C629.07 477.09 627.271 476.822 625.49 477.01C613.38 478.25 601.15 479.24 588.91 480.01C587.24 480.13 585.57 480.23 583.91 480.32C504.97 485.01 426.74 481.21 384.41 478.32L381.41 478.1C374.08 477.58 367.95 477.1 363.23 476.69C360.633 476.471 358.048 477.221 355.972 478.797C353.896 480.372 352.478 482.66 351.99 485.22C351.889 485.761 351.829 486.31 351.81 486.86L351.13 509.02L350.2 537.09L349.76 551.45V551.73V552.57L349.74 552.53Z" fill="#3F3D56"/>
<path id="Vector_52" opacity="0.1" d="M637.03 484.26L636.93 485.69V485.79L636.76 488.09L635.43 506.6L633.82 528.9L633.36 535.18L632.36 548.62V548.79L525.36 549.79L349.77 551.69V552.53H349.63V551.69V551.41L350.08 537.05L350.94 508.99L351.68 485.2L351.75 482.83C351.794 481.4 352.129 479.993 352.734 478.696C353.34 477.4 354.203 476.24 355.272 475.288C356.341 474.336 357.592 473.612 358.95 473.161C360.308 472.709 361.744 472.538 363.17 472.66C367.89 473.06 374.02 473.55 381.35 474.07L384.35 474.29C426.68 477.23 504.91 481.03 583.85 476.29C585.51 476.2 587.18 476.1 588.85 475.98C601.09 475.21 613.32 474.22 625.43 472.98C626.961 472.82 628.508 472.997 629.963 473.499C631.418 474.001 632.746 474.817 633.851 475.887C634.957 476.958 635.815 478.258 636.364 479.696C636.913 481.134 637.141 482.675 637.03 484.21V484.26Z" fill="black"/>
</g>
<g id="Hair">
<path id="Vector_53" d="M541.309 285.895C536.113 283.59 536.113 276.946 530.796 274.735C525.48 272.525 519.442 276.364 516.033 280.238C511.064 285.912 507.614 292.331 505.896 299.1C505.415 301.025 504.965 303.129 503.133 304.472C501.3 305.815 498.897 305.981 496.555 306.171C489.696 306.71 482.828 307.201 475.949 307.645C468.29 308.132 460.21 308.524 453.257 305.921C450.513 304.951 448.155 303.405 446.439 301.453C445.062 299.578 444.079 297.539 443.525 295.415C439.936 284.612 436.316 273.678 436.016 262.506C435.896 257.894 436.406 253.117 439.215 249.076C440.852 246.699 443.255 244.631 443.931 242.016C444.606 239.401 442.429 236.074 439.005 236.359C442.1 236.46 445.183 235.996 448.016 235.004C450.734 233.816 452.746 231.26 451.785 228.931C459.414 229.703 464.971 223.737 470.918 219.874C471.885 219.116 473.191 218.689 474.553 218.686C475.598 218.892 476.607 219.2 477.556 219.601C480.56 220.433 483.699 218.852 486.778 218.163C495.038 216.333 505.536 220.754 511.663 216C511.077 219.031 515.778 221.063 519.653 221.004C523.527 220.944 527.522 219.815 531.187 220.837C530.656 221.605 530.346 222.457 530.28 223.331C530.213 224.205 530.391 225.079 530.802 225.893C531.212 226.706 531.844 227.437 532.654 228.034C533.463 228.631 534.428 229.079 535.482 229.347L533.665 232.484C535.537 232.781 537.267 233.485 538.661 234.518C540.054 235.552 541.054 236.872 541.549 238.332C543.547 244.571 543.051 253.438 542.571 259.855C542.33 262.672 538.861 284.838 541.309 285.895Z" fill="#192534"/>
</g>
</g>
<defs>
<linearGradient id="paint0_linear" x1="520.649" y1="0.0349121" x2="520.649" y2="554.066" gradientUnits="userSpaceOnUse">
<stop stop-color="#A4CFF8"/>
<stop offset="0.645833" stop-color="#57E1FF" stop-opacity="0.635417"/>
<stop offset="1" stop-color="#FDFDFD" stop-opacity="0"/>
</linearGradient>
<clipPath id="clip0">
<rect width="1041.32" height="554.17" fill="white"/>
</clipPath>
</defs>
</svg>
