<svg width="939" height="807" viewBox="0 0 939 807" fill="none" xmlns="http://www.w3.org/2000/svg">
<rect width="939" height="807" fill="white"/>
<g clip-path="url(#clip0)">
<path d="M75.3653 222.889C116.988 222.889 150.731 189.147 150.731 147.524C150.731 105.901 116.988 72.1584 75.3653 72.1584C33.7422 72.1584 0 105.901 0 147.524C0 189.147 33.7422 222.889 75.3653 222.889Z" fill="#FF6584"/>
<path d="M874.367 632.387C874.023 645.216 871.874 657.932 867.983 670.161C867.894 670.445 867.801 670.725 867.708 671.008H843.886C843.912 670.754 843.937 670.47 843.963 670.161C845.551 651.901 854.709 540.764 843.759 521.758C844.716 523.3 876.213 574.366 874.367 632.387Z" fill="#E6E6E6"/>
<path d="M872.579 670.161C872.38 670.445 872.172 670.729 871.961 671.008H854.09C854.226 670.767 854.382 670.483 854.564 670.161C857.517 664.833 866.255 648.902 874.367 632.387C883.084 614.639 891.081 596.218 890.407 589.551C890.615 591.055 896.647 636.894 872.579 670.161Z" fill="#E6E6E6"/>
<path d="M938.759 669.385H253.759V671.625H938.759V669.385Z" fill="#E6E6E6"/>
<path d="M692.223 739.355L695.551 711.902L789.555 687.777L778.74 655.333C786.274 633.726 799.499 623.133 823.663 633.704L865.227 659.524C869.266 662.034 872.557 665.582 874.755 669.799C876.953 674.016 877.977 678.746 877.72 683.495V683.495C877.466 688.262 875.93 692.872 873.273 696.839C870.616 700.805 866.937 703.98 862.625 706.03C816.095 728.086 756.791 736.525 692.223 739.355Z" fill="#FFB8B8"/>
<path d="M698.046 747.674L668.93 743.515L641.697 749.072C640.028 749.413 638.306 749.387 636.648 748.997C634.991 748.606 633.438 747.861 632.096 746.811C630.755 745.762 629.658 744.434 628.88 742.919C628.103 741.404 627.663 739.738 627.592 738.037V738.037C627.513 736.134 627.897 734.24 628.711 732.519C629.525 730.797 630.745 729.299 632.266 728.153L674.941 696C678.601 693.243 683.124 691.88 687.698 692.157C692.272 692.434 696.598 694.332 699.898 697.51L710.525 707.743C702.921 712.46 697.266 719.539 693.887 729.372C701.195 733.39 702.582 739.49 698.046 747.674Z" fill="#2F2E41"/>
<path d="M725.856 459.453C740.727 459.453 752.783 447.397 752.783 432.526C752.783 417.654 740.727 405.598 725.856 405.598C710.984 405.598 698.928 417.654 698.928 432.526C698.928 447.397 710.984 459.453 725.856 459.453Z" fill="#FFB8B8"/>
<path d="M767.926 485.626L707.613 510.999C712.515 486.388 714.958 463.968 707.613 450.271L746.297 445.695C744.376 456.221 754.163 470.318 767.926 485.626Z" fill="#FFB8B8"/>
<path d="M665.603 738.523L643.141 736.859C629.381 679.48 622.336 625.244 625.411 575.747C625.846 568.521 629.062 561.744 634.386 556.839C639.709 551.933 646.726 549.281 653.963 549.437C660.917 549.595 667.563 552.34 672.602 557.135L701.648 584.776C714.601 597.007 724.657 611.978 731.079 628.595C739.305 650.14 736.352 662.219 716.713 660.167C704.442 658.799 693.156 652.799 685.159 643.391L663.939 618.73L665.603 738.523Z" fill="#FFB8B8"/>
<path d="M648.209 806.707C645.265 806.515 642.404 805.648 639.85 804.173C637.295 802.697 635.114 800.654 633.476 798.2C631.838 795.746 630.787 792.948 630.405 790.023C630.022 787.097 630.319 784.123 631.271 781.331L635.654 768.471L638.982 736.027C644.108 725.568 651.367 727.132 659.779 735.195C665.127 734.67 666.275 729.323 665.603 721.885L682.467 744.587C683.911 746.53 684.806 748.825 685.062 751.232C685.317 753.638 684.922 756.07 683.918 758.272L666.945 795.503C665.327 799.051 662.669 802.023 659.322 804.024C655.976 806.025 652.1 806.961 648.209 806.707V806.707Z" fill="#2F2E41"/>
<path d="M860.682 656.581C829.902 674.051 820.255 674.558 789.555 686.946L762.934 671.971C731.67 683.532 709.739 667.684 685.984 644.103C701.529 618.21 694.654 584.563 704.286 585.038L819.503 621.226L824.495 633.704L860.682 656.581Z" fill="#2F2E41"/>
<path d="M823.663 629.545C782.981 647.154 739.177 628.51 701.79 587.534L677.034 487.554C676.742 486.453 676.678 485.304 676.846 484.177C677.015 483.05 677.413 481.969 678.015 481.002C678.617 480.034 679.411 479.201 680.348 478.552C681.285 477.903 682.345 477.453 683.462 477.23L712.189 471.484L726.331 493.945L754.616 468.989L784.653 478.809C788.647 480.114 792.211 482.481 794.965 485.655C797.719 488.829 799.558 492.691 800.287 496.829L823.663 629.545Z" fill="#6C63FF"/>
<path opacity="0.2" d="M759.044 714.303C756.848 713.466 754.886 712.115 753.32 710.363C751.754 708.612 750.632 706.51 750.046 704.234C749.461 701.959 749.43 699.576 749.956 697.286C750.482 694.996 751.549 692.866 753.068 691.074L772.085 668.644L785.396 676.131L778.542 704.074C778.046 706.096 777.126 707.989 775.842 709.629C774.559 711.268 772.942 712.616 771.099 713.583C769.255 714.551 767.227 715.115 765.149 715.239C763.07 715.363 760.99 715.044 759.044 714.303Z" fill="black"/>
<path d="M759.044 710.975C756.848 710.139 754.886 708.788 753.32 707.036C751.754 705.284 750.632 703.182 750.046 700.907C749.461 698.631 749.43 696.249 749.956 693.959C750.482 691.669 751.549 689.538 753.068 687.746L772.085 665.316L785.396 672.803L778.542 700.746C778.046 702.768 777.126 704.662 775.842 706.301C774.559 707.941 772.942 709.289 771.099 710.256C769.255 711.223 767.227 711.787 765.149 711.911C763.07 712.035 760.99 711.716 759.044 710.975V710.975Z" fill="#FFB8B8"/>
<path d="M788.723 679.458L768.758 666.148L797.874 588.782L787.059 479.803L796.925 485.969C802.219 489.278 806.787 493.628 810.349 498.756C813.912 503.883 816.396 509.68 817.651 515.797L833.646 593.773C826.647 629.715 814.981 661.338 788.723 679.458Z" fill="#6C63FF"/>
<path opacity="0.2" d="M776.661 555.922L786.644 605.836L778.433 635.028L776.661 555.922Z" fill="black"/>
<path d="M699.521 430.217C699.521 430.217 684.004 379.433 731.428 390.084C738.784 391.736 745.139 396.012 750.195 401.605C750.648 402.094 751.202 402.478 751.819 402.73C752.436 402.982 753.101 403.096 753.767 403.064C761.343 403.064 766.022 430.136 750.871 442.041C750.871 442.041 753.962 426.021 748.343 420.562C747.332 419.639 746.486 418.55 745.842 417.342C742.184 409.964 729.889 407.542 721.41 408.17C717.081 408.491 716.702 416.039 711.91 414.984C701.006 412.586 697.525 425.217 699.521 430.217Z" fill="#2F2E41"/>
<path d="M747.254 505.59L746.941 507.89L745.003 522.077L741.829 545.312L741.034 551.129C740.974 551.573 740.754 551.98 740.417 552.275C740.079 552.569 739.646 552.732 739.198 552.732H718.035C717.587 552.732 717.155 552.57 716.818 552.276C716.48 551.983 716.26 551.577 716.198 551.133L715.39 545.312L712.163 522.077L710.191 507.879L709.874 505.595C709.838 505.332 709.858 505.065 709.933 504.811C710.009 504.557 710.138 504.322 710.312 504.123C710.485 503.923 710.7 503.762 710.941 503.653C711.183 503.543 711.444 503.486 711.709 503.486H745.418C745.682 503.486 745.944 503.543 746.185 503.652C746.425 503.762 746.64 503.922 746.814 504.121C746.988 504.32 747.117 504.555 747.193 504.808C747.269 505.061 747.29 505.328 747.254 505.59V505.59Z" fill="#E6E6E6"/>
<path d="M713.943 497.33H743.294C743.537 497.33 743.779 497.378 744.003 497.471C744.228 497.565 744.433 497.701 744.605 497.873C744.777 498.045 744.913 498.25 745.007 498.475C745.1 498.699 745.148 498.941 745.148 499.184V501.633C745.148 502.124 744.952 502.596 744.605 502.943C744.257 503.291 743.786 503.486 743.294 503.486H713.943C713.451 503.486 712.98 503.291 712.632 502.943C712.284 502.596 712.089 502.124 712.089 501.633V499.184C712.089 498.94 712.137 498.699 712.23 498.475C712.323 498.25 712.46 498.045 712.632 497.873C712.804 497.701 713.008 497.565 713.233 497.471C713.458 497.378 713.699 497.33 713.943 497.33V497.33Z" fill="#3F3D56"/>
<path d="M749.906 506.564C735.756 508.108 721.48 508.108 707.331 506.564C707.087 506.564 706.846 506.516 706.621 506.423C706.397 506.33 706.192 506.193 706.02 506.021C705.848 505.849 705.711 505.645 705.618 505.42C705.525 505.195 705.477 504.954 705.477 504.711V502.262C705.477 502.018 705.525 501.777 705.618 501.552C705.712 501.328 705.848 501.123 706.02 500.951C706.192 500.779 706.397 500.643 706.621 500.549C706.846 500.456 707.087 500.408 707.331 500.408C721.469 502.147 735.767 502.147 749.906 500.408C750.397 500.408 750.869 500.604 751.216 500.951C751.564 501.299 751.759 501.77 751.759 502.262V504.711C751.759 505.202 751.564 505.674 751.216 506.021C750.869 506.369 750.397 506.564 749.906 506.564V506.564Z" fill="#3F3D56"/>
<path d="M727.759 535.008C732.178 535.008 735.759 531.427 735.759 527.008C735.759 522.59 732.178 519.008 727.759 519.008C723.341 519.008 719.759 522.59 719.759 527.008C719.759 531.427 723.341 535.008 727.759 535.008Z" fill="white"/>
<path d="M748.326 543.839C748.569 546.176 748.248 548.537 747.39 550.724C746.532 552.911 745.161 554.861 743.394 556.409C741.627 557.957 739.514 559.059 737.233 559.621C734.952 560.184 732.569 560.192 730.284 559.643L701.69 552.778L702.374 537.522L730.407 531.045C732.435 530.576 734.54 530.544 736.582 530.95C738.624 531.357 740.556 532.193 742.25 533.402C743.945 534.612 745.363 536.168 746.41 537.968C747.457 539.767 748.111 541.768 748.326 543.839V543.839Z" fill="#FFB8B8"/>
<path d="M709.693 555.506L632.525 557.435C629.739 557.505 626.972 556.966 624.415 555.857C621.859 554.748 619.576 553.094 617.724 551.012C615.872 548.93 614.496 546.469 613.693 543.801C612.889 541.133 612.677 538.322 613.071 535.563V535.563C613.689 531.241 615.763 527.259 618.951 524.277L655.285 490.287C662.023 483.983 670.42 479.732 679.489 478.031L692.223 475.644L699.71 532.213L656.452 527.221L707.197 533.045L709.693 555.506Z" fill="#6C63FF"/>
<path d="M608.03 721.501H411.023C409.271 721.501 407.591 720.805 406.352 719.566C405.113 718.327 404.417 716.647 404.417 714.895V714.895C475.832 706.595 545.905 706.595 614.636 714.895C614.636 716.647 613.94 718.327 612.701 719.566C611.462 720.805 609.782 721.501 608.03 721.501Z" fill="#2F2E41"/>
<path d="M614.636 715.284L404.417 714.895L428.781 673.901L428.897 673.706V583.359C428.897 582.262 429.113 581.176 429.533 580.163C429.953 579.15 430.568 578.229 431.343 577.454C432.118 576.679 433.039 576.063 434.052 575.644C435.065 575.224 436.151 575.008 437.248 575.008H580.64C581.736 575.008 582.822 575.224 583.835 575.644C584.848 576.063 585.769 576.679 586.545 577.454C587.32 578.229 587.935 579.15 588.355 580.163C588.774 581.176 588.99 582.262 588.99 583.359V674.328L614.636 715.284Z" fill="#3F3D56"/>
<path d="M437.057 580.837C436.336 580.838 435.645 581.125 435.135 581.635C434.625 582.145 434.338 582.836 434.337 583.557V665.935C434.338 666.656 434.625 667.347 435.135 667.857C435.645 668.367 436.336 668.654 437.057 668.655H581.996C582.717 668.654 583.408 668.367 583.918 667.857C584.428 667.347 584.715 666.656 584.716 665.935V583.557C584.715 582.836 584.428 582.145 583.918 581.635C583.408 581.125 582.717 580.838 581.996 580.837L437.057 580.837Z" fill="white"/>
<path d="M438.01 679.535C437.787 679.535 437.569 679.599 437.381 679.72C437.194 679.84 437.044 680.011 436.951 680.213L429.444 696.534C429.362 696.711 429.326 696.906 429.34 697.102C429.353 697.297 429.416 697.485 429.521 697.65C429.626 697.814 429.772 697.95 429.943 698.044C430.115 698.137 430.307 698.187 430.503 698.187H588.375C588.574 698.187 588.769 698.136 588.942 698.039C589.116 697.942 589.262 697.803 589.366 697.634C589.471 697.465 589.53 697.272 589.539 697.073C589.548 696.875 589.506 696.677 589.417 696.499L581.257 680.179C581.161 679.985 581.012 679.822 580.828 679.708C580.644 679.594 580.431 679.534 580.215 679.535L438.01 679.535Z" fill="#2F2E41"/>
<path d="M508.944 579.477C509.91 579.477 510.693 578.694 510.693 577.728C510.693 576.763 509.91 575.98 508.944 575.98C507.978 575.98 507.195 576.763 507.195 577.728C507.195 578.694 507.978 579.477 508.944 579.477Z" fill="white"/>
<path d="M493.426 701.295C493.17 701.295 492.921 701.38 492.718 701.536C492.514 701.692 492.368 701.91 492.301 702.158L490.418 709.152C490.371 709.325 490.365 709.506 490.4 709.681C490.434 709.857 490.509 710.022 490.618 710.164C490.727 710.306 490.867 710.421 491.027 710.501C491.188 710.58 491.364 710.621 491.543 710.621H527.356C527.541 710.621 527.725 710.577 527.89 710.491C528.055 710.406 528.197 710.283 528.305 710.131C528.413 709.98 528.483 709.805 528.509 709.621C528.536 709.437 528.518 709.249 528.457 709.074L526.036 702.079C525.956 701.85 525.808 701.652 525.61 701.511C525.413 701.371 525.177 701.295 524.934 701.295H493.426Z" fill="#2F2E41"/>
<path d="M588.99 672.346V673.901H428.781L428.901 673.706V672.346H588.99Z" fill="#2F2E41"/>
<path d="M360.901 620.507C361.342 636.95 364.096 653.248 369.083 668.923C369.197 669.286 369.316 669.645 369.436 670.008H399.968C399.936 669.683 399.903 669.319 399.871 668.923C397.835 645.518 386.097 503.072 400.131 478.712C398.904 480.688 358.534 546.14 360.901 620.507Z" fill="#E6E6E6"/>
<path d="M363.193 668.923C363.448 669.286 363.714 669.65 363.985 670.008H386.89C386.717 669.699 386.516 669.335 386.282 668.923C382.498 662.093 371.298 641.674 360.902 620.507C349.729 597.759 339.479 574.149 340.342 565.603C340.076 567.531 332.345 626.283 363.193 668.923Z" fill="#E6E6E6"/>
<path d="M229.971 451.019C290.89 440.035 322.107 330.367 299.696 206.067C277.285 81.7679 209.733 -10.0927 148.814 0.890802C87.8951 11.8743 56.6781 121.543 79.0889 245.842C101.5 370.142 169.052 462.002 229.971 451.019Z" fill="#E6E6E6"/>
<path d="M171.036 183.149C180.895 209.957 189.667 237.13 197.355 264.667C205.027 292.179 211.591 319.969 217.044 348.036C222.498 376.094 226.821 404.34 230.015 432.774C233.193 461.159 235.235 489.64 236.141 518.218C237.041 546.765 236.792 575.317 235.395 603.875C235.223 607.374 235.033 610.872 234.826 614.369C234.616 617.951 240.188 617.938 240.398 614.369C242.082 585.721 242.61 557.037 241.983 528.318C241.352 499.763 239.579 471.264 236.664 442.821C233.741 414.295 229.693 385.913 224.518 357.675C219.34 329.45 213.035 301.462 205.605 273.712C198.179 245.994 189.641 218.606 179.99 191.548C178.813 188.249 177.619 184.955 176.409 181.668C175.181 178.331 169.794 179.773 171.036 183.149V183.149Z" fill="#3F3D56"/>
<path d="M209.428 288.604L234.112 233.795L241.07 218.347C241.421 217.704 241.513 216.951 241.327 216.243C241.141 215.534 240.691 214.923 240.07 214.535C239.431 214.168 238.673 214.067 237.96 214.254C237.246 214.441 236.635 214.901 236.259 215.535L211.574 270.344L204.617 285.792C204.266 286.435 204.173 287.188 204.359 287.897C204.545 288.605 204.995 289.216 205.616 289.604C206.255 289.971 207.013 290.072 207.727 289.885C208.44 289.698 209.051 289.238 209.428 288.604H209.428Z" fill="#3F3D56"/>
<path d="M214.882 326.055L158.597 304.951L142.732 299.003C142.02 298.813 141.262 298.911 140.62 299.275C139.979 299.639 139.507 300.24 139.305 300.949C139.125 301.661 139.227 302.415 139.589 303.054C139.952 303.692 140.547 304.166 141.251 304.376L197.537 325.479L213.401 331.427C214.113 331.617 214.871 331.52 215.513 331.156C216.154 330.792 216.626 330.191 216.828 329.481C217.008 328.77 216.906 328.015 216.544 327.377C216.181 326.738 215.586 326.264 214.882 326.055V326.055Z" fill="#3F3D56"/>
<path d="M171.052 625C171.052 625 238.84 602.713 301.986 625Z" fill="#E6E6E6"/>
<path d="M474.377 614.441C487.81 614.301 501.241 614.061 514.674 613.878C519.152 613.817 523.63 613.764 528.108 613.718C531.967 613.678 531.977 607.678 528.108 607.718C514.675 607.858 501.244 608.098 487.812 608.281C483.334 608.341 478.856 608.395 474.377 608.441C470.519 608.481 470.509 614.481 474.377 614.441Z" fill="#6C63FF"/>
<path d="M474.377 628.441L528.668 627.878L544.108 627.718C547.967 627.678 547.976 621.678 544.108 621.718L489.818 622.281L474.377 622.441C470.519 622.481 470.509 628.481 474.377 628.441Z" fill="#6C63FF"/>
<path d="M474.377 642.441L528.668 641.878L544.108 641.718C547.967 641.678 547.976 635.678 544.108 635.718L489.818 636.281L474.377 636.441C470.519 636.481 470.509 642.481 474.377 642.441Z" fill="#6C63FF"/>
</g>
<defs>
<clipPath id="clip0">
<rect width="938.759" height="806.748" fill="white"/>
</clipPath>
</defs>
</svg>
