<svg width="49" height="38" viewBox="0 0 49 38" fill="none" xmlns="http://www.w3.org/2000/svg">
<rect width="49" height="38" fill="#E5E5E5"/>
<rect width="49" height="38" fill="white"/>
<path d="M44.3939 7.14088C43.4306 7.14088 42.0264 6.89188 41.0916 7.16887C40.308 7.40104 39.2594 7.4327 38.5379 7.83352C38.0393 8.11054 37.4721 8.23573 37.0267 8.58213C36.5736 8.93452 36.476 9.49757 36.2361 10.0374C35.9746 10.6257 35.8943 11.2883 35.6764 11.8984C35.2547 13.0793 34.6935 14.1827 33.8854 15.1377C33.6248 15.4457 33.4334 15.7415 33.0598 15.9283C32.7767 16.0698 32.3856 15.995 32.1153 16.1452C31.7712 16.3363 30.6764 16.3294 30.4432 15.9563C30.0819 15.3782 29.7932 14.7434 29.4077 14.1652C28.7399 13.1636 27.3938 12.1118 26.2663 11.6185C25.4585 11.2651 23.8952 12.5022 23.139 12.8079C22.7326 12.9722 22.3982 13.1915 21.9776 13.3117C21.0214 13.5849 20.2185 14.1217 19.305 14.473C18.883 14.6354 18.4957 14.957 18.0666 15.1447C17.5227 15.3827 17.0095 15.5807 16.4365 15.7324C15.9155 15.8703 13.2835 16.1851 13.1622 15.4875C12.981 14.4454 12.7484 12.69 11.714 12.1153C11.0335 11.7373 10.3175 11.4226 9.5101 11.4226C7.26126 11.4226 4.00789 11.1904 2.77263 8.96692C2.15141 7.84873 1.88265 5.34152 3.2134 4.6222C3.7859 4.31274 4.1888 3.99253 4.85054 3.99253C5.82499 3.99253 6.93338 3.83323 7.87296 4.11846C9.28929 4.54842 10.8216 4.77419 12.1547 5.44077C16.1158 7.4213 20.4283 4.84492 23.9925 3.11099C24.9306 2.65461 26.2607 2.12356 27.3228 2.10352C28.0965 2.08892 29.1725 1.91732 29.9044 2.17348C30.7411 2.4663 31.4879 3.06166 32.2972 3.42582C33.7341 4.07243 35.9987 3.79526 37.5374 3.54476C38.649 3.36381 39.7561 3.1917 40.8677 3.01304C41.9098 2.84556 42.9258 2.48132 43.9881 2.48132C44.9473 2.48132 46.1569 3.6397 46.1569 4.68516C46.1569 5.35334 46.4855 5.68896 45.8421 6.18938C45.6228 6.35996 45.2942 6.49529 45.0235 6.51121C44.7602 6.5267 44.6906 6.80359 44.5198 6.88901" stroke="black" stroke-linecap="round" stroke-linejoin="round"/>
</svg>
